<svg width="8" height="16" viewBox="0 0 8 16" fill="none" xmlns="http://www.w3.org/2000/svg">
<path id="Vector" d="M6.67262 7.9155e-05C6.50185 -0.000501633 6.33312 0.0371771 6.17883 0.110346C6.02454 0.183515 5.88861 0.290315 5.78103 0.422897L0.260033 7.27939C0.0919094 7.48387 0 7.74035 0 8.00504C0 8.26973 0.0919094 8.52621 0.260033 8.73068L5.97535 15.5872C6.16937 15.8205 6.44818 15.9673 6.75043 15.9952C7.05269 16.023 7.35363 15.9297 7.58707 15.7357C7.8205 15.5418 7.9673 15.263 7.99516 14.9609C8.02303 14.6587 7.92969 14.3578 7.73566 14.1245L2.62617 7.99932L7.5642 1.87419C7.70398 1.70645 7.79277 1.50219 7.82007 1.28559C7.84736 1.06898 7.81202 0.849088 7.71823 0.651932C7.62443 0.454776 7.47611 0.288607 7.29081 0.173086C7.1055 0.0575657 6.89098 -0.00247192 6.67262 7.9155e-05Z" fill="#242731"/>
</svg>
